replay
version=1
nRows=9
nColumns=40
inDegrees=no
endheader
time	/jointset/ground_pelvis/pelvis_tilt/value	/jointset/ground_pelvis/pelvis_list/value	/jointset/ground_pelvis/pelvis_rotation/value	/jointset/ground_pelvis/pelvis_tx/value	/jointset/ground_pelvis/pelvis_ty/value	/jointset/ground_pelvis/pelvis_tz/value	/jointset/hip_r/hip_flexion_r/value	/jointset/hip_r/hip_adduction_r/value	/jointset/hip_r/hip_rotation_r/value	/jointset/walker_knee_r/knee_angle_r/value	/jointset/patellofemoral_r/knee_angle_r_beta/value	/jointset/ankle_r/ankle_angle_r/value	/jointset/subtalar_r/subtalar_angle_r/value	/jointset/mtp_r/mtp_angle_r/value	/jointset/hip_l/hip_flexion_l/value	/jointset/hip_l/hip_adduction_l/value	/jointset/hip_l/hip_rotation_l/value	/jointset/walker_knee_l/knee_angle_l/value	/jointset/patellofemoral_l/knee_angle_l_beta/value	/jointset/ankle_l/ankle_angle_l/value	/jointset/subtalar_l/subtalar_angle_l/value	/jointset/mtp_l/mtp_angle_l/value	/jointset/back/lumbar_extension/value	/jointset/back/lumbar_bending/value	/jointset/back/lumbar_rotation/value	/jointset/acromial_r/arm_flex_r/value	/jointset/acromial_r/arm_add_r/value	/jointset/acromial_r/arm_rot_r/value	/jointset/elbow_r/elbow_flex_r/value	/jointset/radioulnar_r/pro_sup_r/value	/jointset/radius_hand_r/wrist_flex_r/value	/jointset/radius_hand_r/wrist_dev_r/value	/jointset/acromial_l/arm_flex_l/value	/jointset/acromial_l/arm_add_l/value	/jointset/acromial_l/arm_rot_l/value	/jointset/elbow_l/elbow_flex_l/value	/jointset/radioulnar_l/pro_sup_l/value	/jointset/radius_hand_l/wrist_flex_l/value	/jointset/radius_hand_l/wrist_dev_l/value
0.15	-0.1409022858	-0.1678618253	-0.3249653563	1.172904509	1.054296621	-0.09771587441	0.222807528	0.1725177941	0.2365306008	0.1516465071	0.1516465071	-0.126747896	-0.1428818532	4.800526391e-06	0.2113947649	-0.1676669505	-0.1452654617	0.169914289	0.169914289	-0.01021190047	-0.1256940926	1.903091053e-06	0.2432784928	0.9488171131	-0.8175377617	-0.7132050593	-1.305010833	-0.9700744613	0.5600920723	0.1848071801	0.518356042	-0.7852372013	0.06376783222	0.672021502	-0.9983441296	1.643657942	0.1963195691	0.000176842977	6.613069092e-05
0.152777778	-0.1409443403	-0.1678309574	-0.3252692979	1.172966599	1.054352206	-0.09774536964	0.2226675389	0.1723968289	0.2364613212	0.1516938324	0.1516938324	-0.1267821815	-0.1429631883	4.720043193e-06	0.2115434714	-0.1676140431	-0.1451023633	0.1699432127	0.1699432127	-0.01008751851	-0.1256830117	2.003738914e-06	0.2435185891	0.9493657668	-0.8180679889	-0.713470829	-1.304762568	-0.9701651787	0.5596750523	0.1845145797	0.5178813527	-0.7852540266	0.06386689158	0.6720344224	-0.9983322218	1.643668278	0.1963061417	0.0001739044565	6.75560658e-05
0.155555556	-0.1409715963	-0.1678018627	-0.3255839226	1.173027597	1.054426439	-0.09778463165	0.2225258458	0.1722689331	0.2364052798	0.1517431704	0.1517431704	-0.1268148395	-0.1430405534	4.649852063e-06	0.2116815714	-0.1675517362	-0.1449492342	0.1699762815	0.1699762815	-0.009963554658	-0.1256846105	2.047769099e-06	0.2437479731	0.9499433852	-0.8185977	-0.7137184279	-1.304497651	-0.9702737895	0.5591785447	0.1842447214	0.5174751606	-0.7852751406	0.06396056817	0.6720451976	-0.9983144852	1.643677255	0.1962864068	0.00016899811	6.847977991e-05
0.158333333	-0.1409803523	-0.1677597073	-0.325898005	1.173087111	1.054518484	-0.09783576242	0.222391549	0.17211355	0.2363431723	0.1518067937	0.1518067937	-0.1268538324	-0.1431278938	4.586178255e-06	0.2118153069	-0.1674573891	-0.1447811698	0.1700132365	0.1700132365	-0.009841056901	-0.1256724799	2.046123905e-06	0.2439813311	0.9505323146	-0.8191686457	-0.713967746	-1.304236197	-0.9704307811	0.5587089923	0.1840535839	0.5170046421	-0.7852648682	0.06405450427	0.6720566493	-0.9983020799	1.643679033	0.1962727988	0.0001655967481	6.914700626e-05
0.161111111	-0.1409670751	-0.1676903108	-0.3262007653	1.173144769	1.054627526	-0.09790075667	0.2222734033	0.1719111027	0.2362563009	0.1518965002	0.1518965002	-0.1269068903	-0.1432387643	4.514810102e-06	0.2119506987	-0.1673094116	-0.1445740564	0.1700538544	0.1700538544	-0.009721017884	-0.1256210075	2.037573666e-06	0.2442329733	0.9511156496	-0.8198213546	-0.7142391426	-1.303997773	-0.9706663723	0.5583692682	0.1839999314	0.5163373859	-0.7851914525	0.06415414489	0.6720715589	-0.9983057809	1.643668171	0.1962774006	0.0001670517518	6.981647748e-05
0.163888889	-0.1409333653	-0.1676041675	-0.3264998885	1.173200645	1.054753588	-0.09797738501	0.2221658552	0.1716791556	0.2361510011	0.1520075486	0.1520075486	-0.126970305	-0.1433699826	4.417412936e-06	0.2120831133	-0.1671261551	-0.1443356727	0.1700992725	0.1700992725	-0.009601771518	-0.1255360145	2.085659515e-06	0.2444955967	0.9517051101	-0.8205445723	-0.7145423449	-1.303779717	-0.9709865723	0.5581235736	0.1840679707	0.5155092066	-0.7850675149	0.06425660221	0.6720908653	-0.9983217008	1.643654189	0.1962980592	0.0001732343651	7.024997648e-05
0.166666667	-0.140887456	-0.1675438603	-0.3268269993	1.173255382	1.054897797	-0.09805793563	0.2220446762	0.1714835256	0.2360661169	0.1521137065	0.1521137065	-0.1270254412	-0.1434965878	4.279120888e-06	0.2121940047	-0.1669778693	-0.144115164	0.1701523936	0.1701523936	-0.009478125911	-0.1254641365	2.255929732e-06	0.2447336964	0.9523496422	-0.8212598562	-0.7148717564	-1.303550685	-0.9713640249	0.5577558886	0.1841251797	0.5147905634	-0.7849533216	0.06434814342	0.672113119	-0.9983269709	1.643666008	0.1963141154	0.0001795794824	6.952084338e-05
0.169444444	-0.1408380203	-0.1675542006	-0.327215237	1.17330966	1.055061364	-0.09813433729	0.2218842756	0.1713933008	0.2360426273	0.1521872487	0.1521872487	-0.127052651	-0.1435921518	4.076768738e-06	0.2122638307	-0.1669383364	-0.1439643417	0.1702162319	0.1702162319	-0.009344570169	-0.1254546766	2.583608702e-06	0.2449098601	0.953100766	-0.8218844975	-0.7152186836	-1.30327777	-0.9717667174	0.5570376734	0.1840103616	0.5144848203	-0.7849017492	0.064414297	0.6721367199	-0.998297551	1.643733804	0.1963036481	0.0001813054331	6.658999358e-05
0.172222222	-0.1407919104	-0.1676699432	-0.3276909976	1.17336378	1.055245202	-0.09820010697	0.2216653335	0.171462687	0.2361166049	0.1522071814	0.1522071814	-0.127036143	-0.1436357852	3.788253685e-06	0.2122773694	-0.1670656098	-0.1439278343	0.1702927041	0.1702927041	-0.009198826897	-0.1255470225	2.995769096e-06	0.2449926473	0.9539984131	-0.8223510792	-0.715571918	-1.302932006	-0.9721698347	0.5557862313	0.1835943621	0.5148341633	-0.7849481531	0.06444274073	0.6721595615	-0.9982152003	1.643881119	0.1962494659	0.0001744038994	6.055726682e-05
